
<svg version="1.0" xmlns="http://www.w3.org/2000/svg"
 width="300.000000pt" height="117.000000pt" viewBox="0 0 300.000000 117.000000"
 preserveAspectRatio="xMidYMid meet">
<metadata>
Created by potrace 1.10, written by Peter Selinger 2001-2011
</metadata>
<g transform="translate(0.000000,117.000000) scale(0.100000,-0.100000)"
fill="#ffffff" stroke="none">
<path d="M2779 1021 c-75 -29 -109 -55 -109 -82 0 -16 27 -39 44 -39 14 0 5
30 -11 39 -24 13 -11 24 64 51 56 20 92 44 82 54 -2 2 -34 -8 -70 -23z"/>
<path d="M1420 986 c-96 -36 -110 -43 -110 -56 0 -4 37 7 83 26 45 18 87 34
93 34 6 0 17 7 24 15 17 21 7 19 -90 -19z"/>
<path d="M2524 995 c-6 -26 -7 -26 -21 -5 -8 11 -21 20 -29 20 -21 0 -17 -27
6 -33 12 -3 20 -14 20 -25 0 -33 19 -36 26 -5 10 49 13 53 30 46 12 -4 15 -2
12 8 -9 26 -37 22 -44 -6z"/>
<path d="M1628 982 l-12 -30 -19 25 c-15 19 -22 22 -28 11 -13 -19 -11 -28 6
-28 9 0 18 -12 22 -30 8 -40 17 -38 29 8 5 20 15 36 22 35 15 -4 16 23 1 32
-5 4 -15 -6 -21 -23z"/>
<path d="M2014 986 c-8 -31 -15 -33 -32 -6 -13 22 -32 19 -32 -6 0 -8 7 -14
15 -14 8 0 17 -11 21 -25 9 -36 22 -31 30 11 5 25 11 34 21 30 10 -4 13 0 11
11 -5 27 -27 26 -34 -1z"/>
<path d="M1185 965 c-49 -18 -91 -38 -93 -44 -2 -6 -1 -11 1 -11 12 0 193 73
202 81 16 16 -17 8 -110 -26z"/>
<path d="M2153 962 c-51 -19 -93 -41 -93 -47 0 -8 39 2 105 28 58 23 105 45
105 49 0 13 -19 8 -117 -30z"/>
<path d="M2350 993 c0 -5 7 -17 15 -27 8 -11 15 -33 15 -49 0 -18 4 -26 11
-21 13 8 5 69 -12 90 -12 15 -29 19 -29 7z"/>
<path d="M696 950 c-13 -31 -14 -32 -20 -12 -8 23 -30 29 -41 13 -3 -6 4 -15
15 -21 11 -6 20 -19 20 -30 0 -36 19 -30 30 9 8 29 15 39 25 35 19 -8 19 10 0
26 -13 10 -17 7 -29 -20z"/>
<path d="M994 954 l-7 -27 -18 24 c-15 20 -20 22 -31 11 -11 -12 -9 -17 10
-29 12 -9 22 -21 22 -29 0 -28 20 -23 28 8 4 18 15 33 23 33 20 0 18 29 -3 33
-12 2 -19 -5 -24 -24z"/>
<path d="M1750 968 c0 -6 7 -19 16 -29 9 -10 20 -33 24 -51 l8 -33 1 38 c1 21
-6 49 -15 62 -17 26 -34 33 -34 13z"/>
<path d="M363 933 l-10 -28 -12 23 c-13 25 -36 29 -45 7 -3 -8 -33 -33 -67
-55 -34 -22 -57 -40 -50 -40 20 0 85 36 105 59 27 29 45 26 53 -9 8 -40 19
-38 27 5 4 21 13 35 21 35 8 0 15 7 15 15 0 26 -28 16 -37 -12z"/>
<path d="M1895 947 c-4 -9 -2 -102 5 -205 7 -103 12 -216 12 -250 0 -48 3 -61
12 -52 13 13 15 146 3 308 -6 86 -5 112 3 107 13 -8 10 3 -15 75 -10 28 -14
32 -20 17z"/>
<path d="M2585 930 c-9 -17 -14 -39 -12 -48 4 -14 6 -13 12 6 4 12 11 22 16
22 11 0 18 -61 28 -252 10 -188 19 -218 70 -218 16 0 34 6 40 14 18 21 24 77
12 109 -14 36 -35 36 -28 0 13 -67 13 -68 -14 -71 -14 -2 -31 3 -37 11 -7 8
-16 90 -22 203 -10 193 -17 245 -37 251 -7 3 -19 -10 -28 -27z"/>
<path d="M2807 947 c-3 -7 2 -105 10 -218 8 -112 12 -223 10 -246 -3 -24 -1
-43 4 -43 8 0 18 40 22 90 3 35 -13 280 -20 309 -5 20 -3 23 11 18 12 -5 16
-3 12 5 -3 7 -11 32 -18 56 -12 43 -22 52 -31 29z"/>
<path d="M1415 938 c-3 -9 -4 -45 -1 -80 3 -35 9 -129 12 -209 7 -144 7 -147
-15 -158 -37 -20 -67 -3 -62 37 3 18 -5 15 -37 -18 -24 -24 -39 -30 -71 -30
-41 0 -50 6 -91 60 -30 39 -43 26 -143 -135 -18 -28 -45 -54 -70 -67 -32 -17
-38 -23 -23 -26 32 -7 98 49 134 113 45 82 83 108 96 67 21 -66 103 -84 153
-34 27 28 28 28 38 9 28 -55 96 -29 116 46 10 39 7 168 -7 291 -5 37 -3 47 6
41 15 -9 8 26 -14 79 -11 25 -15 28 -21 14z"/>
<path d="M1686 932 c-4 -12 -3 -46 3 -75 5 -28 12 -121 16 -205 8 -196 17
-222 77 -222 33 0 48 24 48 79 0 46 -8 71 -22 71 -9 0 -8 -41 3 -80 3 -11 -5
-16 -29 -18 -43 -4 -52 21 -52 146 0 109 -15 267 -28 303 l-9 24 -7 -23z"/>
<path d="M1527 927 c-2 -6 2 -102 10 -212 8 -110 12 -221 10 -247 -2 -27 0
-48 4 -48 9 0 20 52 23 102 2 50 -15 289 -22 306 -4 12 -1 14 12 9 12 -5 16
-3 12 5 -3 7 -11 32 -18 56 -12 43 -22 52 -31 29z"/>
<path d="M781 912 c-23 -43 -4 -119 20 -81 11 17 11 29 2 28 -19 -3 -21 3 -11
32 12 35 5 50 -11 21z"/>
<path d="M878 913 c-3 -10 0 -90 7 -178 6 -88 10 -162 8 -164 -2 -3 -37 5 -78
17 -95 28 -151 29 -165 3 -16 -31 -13 -33 38 -30 55 3 132 -10 132 -22 0 -14
-145 -48 -205 -49 -36 0 -77 14 -65 22 3 2 18 10 35 18 45 23 44 47 -2 66 -49
21 -162 13 -180 -13 -18 -23 -16 -44 2 -37 17 7 75 -14 75 -26 0 -5 -16 -14
-36 -20 -31 -11 -38 -10 -46 3 -13 25 -38 47 -52 47 -33 0 -64 -71 -44 -97 6
-7 28 -13 49 -13 52 0 51 -18 -7 -69 -50 -44 -119 -81 -150 -81 -55 0 -77 50
-55 127 5 18 6 35 2 38 -14 8 -34 -83 -28 -126 7 -57 31 -79 82 -79 28 0 55 9
86 28 59 38 129 116 129 144 0 18 12 28 50 45 l49 21 28 -21 c41 -32 115 -28
238 12 55 18 106 35 114 37 11 3 13 -8 9 -57 -4 -53 -3 -59 9 -43 7 10 13 27
13 38 0 48 11 66 35 60 17 -4 26 0 34 15 11 19 8 21 -27 27 l-39 6 -7 117 c-4
64 -10 125 -13 135 -4 15 -2 18 12 13 11 -5 15 -3 11 5 -3 7 -11 32 -18 56
-13 45 -23 53 -30 25z m-323 -352 c3 -6 -3 -14 -13 -20 -13 -7 -24 -4 -42 10
l-25 19 37 0 c20 0 39 -4 43 -9z m-195 -66 c11 -13 8 -15 -14 -15 -25 0 -33
10 -19 23 10 11 19 8 33 -8z"/>
<path d="M1214 919 c-3 -6 -1 -15 7 -20 11 -6 10 -12 -5 -28 -11 -12 -14 -21
-9 -21 14 0 43 45 43 65 0 17 -25 20 -36 4z"/>
<path d="M1029 894 c-6 -16 -9 -51 -6 -77 2 -28 -2 -66 -10 -89 -17 -50 -9
-94 22 -114 35 -23 69 -8 122 54 88 101 153 133 195 95 17 -15 18 -14 18 20 0
27 -5 37 -21 42 -48 16 -105 -18 -206 -122 -52 -53 -67 -64 -90 -61 -39 4 -42
48 -9 123 28 63 34 89 13 60 -21 -27 -30 -3 -17 46 13 48 6 65 -11 23z"/>
<path d="M125 890 c-16 -26 -23 -73 -15 -102 7 -22 5 -47 -6 -86 -13 -45 -14
-62 -5 -93 25 -84 92 -59 260 96 62 58 126 112 142 120 36 19 78 19 85 0 8
-21 24 -8 24 19 0 48 -45 59 -108 27 -20 -11 -82 -61 -137 -111 -149 -137
-210 -171 -243 -138 -18 18 -15 48 13 123 14 37 23 70 20 73 -3 3 -5 0 -5 -6
0 -7 -7 -12 -15 -12 -19 0 -19 21 -1 65 14 32 6 50 -9 25z"/>
<path d="M2150 868 c-12 -13 -20 -35 -20 -55 0 -35 14 -43 77 -41 28 1 30 3
20 20 -7 10 -23 18 -39 18 -29 0 -45 15 -28 25 30 18 90 -31 90 -73 0 -17 -84
-92 -126 -112 -99 -48 -162 4 -124 104 5 14 5 28 1 31 -13 8 -34 -92 -27 -128
8 -41 43 -77 76 -77 56 0 176 85 204 145 21 44 8 100 -30 139 -32 32 -47 33
-74 4z"/>
<path d="M2396 855 c-80 -30 -125 -55 -101 -55 20 0 205 73 205 81 0 13 -5 11
-104 -26z"/>
<path d="M1128 875 c-14 -23 -25 -84 -18 -95 10 -16 38 -6 47 15 3 9 1 26 -5
38 -6 12 -12 29 -14 37 -3 7 -7 10 -10 5z"/>
<path d="M2745 821 c5 -23 4 -31 -4 -27 -6 4 -11 16 -11 27 0 10 -5 19 -10 19
-6 0 -8 -10 -4 -24 3 -13 1 -27 -5 -30 -6 -4 -11 1 -11 11 0 10 -5 25 -10 33
-7 12 -10 8 -10 -15 0 -39 14 -60 31 -49 8 4 23 8 34 9 16 0 20 6 18 29 -1 16
-7 34 -14 40 -8 8 -9 2 -4 -23z"/>
<path d="M640 794 c-15 -52 -3 -77 25 -54 17 14 20 55 5 65 -5 3 -7 12 -3 20
3 8 1 15 -5 15 -5 0 -15 -20 -22 -46z"/>
<path d="M2505 829 c-4 -6 -2 -15 6 -20 11 -6 10 -12 -6 -28 -10 -12 -16 -24
-13 -27 9 -8 49 48 46 65 -4 19 -24 25 -33 10z"/>
<path d="M1609 791 c-18 -61 6 -98 32 -49 10 18 9 20 -6 14 -16 -6 -17 -2 -11
34 8 51 0 52 -15 1z"/>
<path d="M1825 793 c2 -18 0 -33 -5 -33 -6 0 -10 11 -10 25 0 14 -5 25 -10 25
-6 0 -8 -11 -4 -25 5 -19 2 -25 -10 -25 -11 0 -16 9 -16 26 0 14 -4 23 -10 19
-10 -6 -3 -54 10 -69 5 -4 14 -4 22 0 7 5 20 7 29 6 24 -4 29 19 13 53 l-14
30 5 -32z"/>
<path d="M2049 793 c-13 -36 -8 -78 11 -78 8 0 16 8 18 19 3 12 0 16 -8 11 -9
-6 -10 3 -5 34 8 47 0 54 -16 14z"/>
<path d="M516 779 c-10 -15 -12 -27 -6 -33 17 -17 12 -24 -46 -56 -30 -18 -53
-34 -51 -37 7 -6 94 36 108 53 6 8 18 14 25 14 10 0 12 9 7 33 -8 45 -18 52
-37 26z"/>
<path d="M2401 773 c-1 -35 -21 -47 -21 -14 0 11 -4 23 -10 26 -11 7 -14 -34
-4 -59 7 -18 34 -22 34 -5 0 6 9 8 20 4 27 -8 37 18 20 53 -7 15 -15 22 -17
15 -2 -7 1 -21 7 -32 6 -12 7 -21 2 -21 -5 0 -14 15 -20 33 l-10 32 -1 -32z"/>
<path d="M194 765 c-9 -24 22 -53 38 -37 9 9 10 17 2 29 -15 24 -33 27 -40 8z"/>
<path d="M804 734 l-7 -27 -19 24 c-16 21 -20 22 -31 9 -20 -25 -91 -77 -114
-84 -20 -6 -33 -26 -18 -26 19 0 106 53 115 70 9 16 15 18 30 10 11 -6 20 -20
20 -30 0 -33 17 -22 24 15 4 21 13 35 21 35 8 0 15 7 15 15 0 26 -29 16 -36
-11z"/>
<path d="M1240 671 c-14 -27 -15 -27 35 -23 26 3 45 0 45 -6 0 -6 -20 -18 -45
-28 -25 -9 -45 -21 -45 -25 0 -12 2 -12 52 10 41 17 78 56 78 81 0 6 -24 10
-55 10 -43 0 -56 -4 -65 -19z"/>
<path d="M2716 683 c-13 -13 -5 -43 13 -52 18 -10 31 2 31 27 0 11 -37 32 -44
25z"/>
<path d="M2504 667 c-7 -18 13 -102 36 -154 16 -36 16 -44 4 -54 -21 -17 -60
-3 -73 28 -6 16 -18 61 -26 102 -16 77 -21 89 -31 78 -8 -8 -7 -37 2 -115 6
-57 5 -65 -16 -87 -27 -28 -71 -33 -90 -10 -9 11 -11 39 -6 103 l6 87 -25 -30
c-13 -16 -29 -50 -34 -75 -15 -69 -29 -100 -45 -100 -22 0 -28 15 -27 81 0 35
-4 57 -10 54 -5 -4 -9 -33 -9 -65 0 -49 4 -64 25 -87 l25 -28 20 23 c10 13 25
50 31 83 16 81 28 83 22 5 -5 -60 -4 -66 21 -91 21 -21 33 -25 54 -20 37 9 60
32 68 68 l6 30 13 -30 c13 -31 50 -63 72 -63 7 0 22 9 33 20 25 25 26 87 3
149 -12 31 -14 46 -6 48 8 3 6 14 -5 34 -18 31 -30 36 -38 16z"/>
<path d="M1786 654 c-4 -10 1 -22 11 -30 15 -11 20 -11 30 3 9 12 10 20 2 30
-15 18 -36 16 -43 -3z"/>
<path d="M1610 645 c0 -3 7 -17 16 -30 17 -26 16 -62 -4 -123 -9 -27 -8 -34 4
-39 22 -8 46 17 39 41 -4 12 -8 44 -9 72 -1 48 -17 84 -37 84 -5 0 -9 -2 -9
-5z"/>
<path d="M2340 586 c-19 -52 -10 -97 17 -75 18 15 17 30 -2 23 -18 -7 -19 4
-5 42 6 15 8 29 6 32 -3 3 -10 -7 -16 -22z"/>
<path d="M2062 528 c-7 -7 -12 -21 -12 -32 -1 -18 -3 -17 -16 7 -16 29 -28 34
-40 15 -4 -7 2 -18 14 -26 12 -8 22 -20 22 -28 0 -28 20 -23 28 8 4 18 14 33
20 33 7 0 12 3 12 8 0 4 0 12 0 17 0 14 -13 13 -28 -2z"/>
<path d="M191 469 c-15 -45 -14 -79 4 -79 8 0 20 10 26 23 12 21 11 21 -6 7
-17 -14 -18 -13 -12 33 8 55 4 60 -12 16z"/>
<path d="M777 420 c-4 -17 16 -40 36 -40 12 0 16 34 6 46 -17 20 -36 17 -42
-6z"/>
<path d="M1095 430 c-3 -5 -1 -10 4 -10 17 0 13 -21 -6 -36 -13 -10 -14 -13
-4 -14 17 0 40 29 41 53 0 18 -25 24 -35 7z"/>
<path d="M2075 415 c-3 -8 -7 -21 -9 -29 -3 -7 1 -19 7 -26 8 -8 8 -14 2 -16
-27 -11 -106 -66 -101 -71 7 -7 99 46 109 64 4 7 17 13 28 13 41 0 33 47 -13
71 -14 7 -19 6 -23 -6z"/>
<path d="M472 403 c-5 -10 -9 -42 -10 -70 -2 -52 -1 -53 25 -53 16 1 39 7 53
16 24 14 23 14 -22 8 -58 -8 -63 8 -18 51 17 16 30 33 30 39 0 6 -5 5 -12 -2
-15 -15 -38 -16 -38 -2 0 6 7 10 15 10 8 0 15 5 15 10 0 17 -29 11 -38 -7z"/>
<path d="M1434 399 c-3 -6 -1 -15 5 -19 9 -5 8 -10 -4 -20 -8 -7 -15 -18 -15
-24 1 -16 50 42 50 60 0 17 -26 19 -36 3z"/>
<path d="M624 388 c-4 -6 -2 -14 4 -16 8 -2 7 -11 -4 -28 -9 -13 -12 -24 -6
-24 13 0 42 45 42 65 0 18 -26 20 -36 3z"/>
<path d="M1684 389 c-3 -6 -1 -15 5 -19 9 -5 8 -10 -4 -20 -17 -14 -20 -30 -5
-30 13 0 42 58 35 70 -8 13 -22 13 -31 -1z"/>
<path d="M2724 389 c-3 -6 -1 -15 7 -20 11 -6 10 -12 -5 -28 -11 -12 -14 -21
-8 -21 15 0 42 40 42 62 0 20 -25 24 -36 7z"/>
<path d="M1888 373 c-9 -10 -16 -30 -16 -46 l1 -27 31 19 c36 23 51 50 18 32
-14 -7 -23 -8 -27 -1 -3 5 1 10 9 10 9 0 16 7 16 15 0 20 -13 19 -32 -2z"/>
<path d="M2823 378 c-6 -7 -10 -27 -10 -44 l0 -31 33 21 c40 25 43 39 8 30
-19 -5 -25 -4 -20 5 4 6 12 9 17 6 5 -4 9 1 9 9 0 19 -24 21 -37 4z"/>
<path d="M1540 365 c-7 -8 -10 -21 -7 -29 3 -7 0 -19 -6 -25 -18 -18 3 -13 39
10 36 22 48 47 15 29 -25 -13 -31 -13 -31 0 0 6 7 10 16 10 8 0 12 5 9 10 -9
14 -21 12 -35 -5z"/>
<path d="M2541 341 c-52 -21 -97 -44 -99 -51 -3 -9 1 -11 14 -5 11 4 57 22
104 40 46 18 86 38 88 44 5 16 -2 14 -107 -28z"/>
<path d="M1111 330 c-52 -20 -97 -43 -99 -50 -3 -8 1 -11 9 -7 8 3 50 20 94
37 77 31 104 46 94 53 -2 2 -47 -13 -98 -33z"/>
<path d="M763 323 c-56 -21 -93 -41 -93 -50 0 -11 8 -10 38 5 20 10 65 29 100
42 34 12 62 26 62 31 0 13 -5 11 -107 -28z"/>
<path d="M1261 342 c-13 -24 26 -53 40 -30 7 10 12 11 28 1 17 -11 22 -10 31
7 8 16 6 21 -11 31 -17 9 -23 8 -30 -2 -6 -11 -11 -11 -21 -1 -17 17 -26 15
-37 -6z"/>
<path d="M2281 326 c-47 -18 -87 -39 -89 -46 -3 -7 0 -11 5 -9 5 2 50 20 101
39 51 19 92 38 92 42 0 14 -22 8 -109 -26z"/>
</g>
</svg>
