<svg xmlns="http://www.w3.org/2000/svg" viewBox="0 0 200 200" width="200" height="200">
  <g fill="none" stroke="#66c3ff" stroke-width="8" stroke-linecap="round" stroke-linejoin="round">
    <!-- Dotted line on the left -->
    <circle cx="20" cy="20" r="4" />
    <circle cx="20" cy="40" r="4" />
    <circle cx="20" cy="60" r="4" />
    <circle cx="20" cy="80" r="4" />
    <circle cx="20" cy="100" r="4" />
    <circle cx="20" cy="120" r="4" />
    <circle cx="20" cy="140" r="4" />
    
    <!-- Horizontal lines -->
    <line x1="40" y1="20" x2="180" y2="20" />
    <line x1="40" y1="60" x2="180" y2="60" />
    <line x1="40" y1="140" x2="180" y2="140" />
    
    <!-- Vertical lines -->
    <line x1="40" y1="20" x2="40" y2="140" />
    
    <!-- Spiral shape -->
    <path d="M120,60 A40,40 0 0,1 140,100 A20,20 0 0,1 120,120 A10,10 0 0,1 110,110" />
  </g>
</svg>
