  <svg
    xmlns="http://www.w3.org/2000/svg"
    viewBox="0 0 562 414"
    class="w-24 h-24 fill-current text-white dark:text-white"
  >

<path fill="#ffffff" opacity="1.000000" stroke="none" 
	d="
M471.979614,156.029022 
	C472.834839,174.407974 470.193237,191.788330 463.918304,208.527527 
	C458.884155,221.956863 452.157806,234.560272 443.299713,245.879944 
	C442.186066,247.303101 439.279633,247.903122 437.201843,247.907364 
	C383.560394,248.017303 329.918610,247.998032 276.276917,247.999664 
	C262.783173,248.000061 249.288193,247.892868 235.796555,248.059723 
	C232.076355,248.105728 230.949463,246.875885 230.955841,243.157806 
	C231.050797,187.683868 230.941559,132.209381 231.191132,76.736412 
	C231.205429,73.557625 233.154388,69.665787 235.449524,67.331436 
	C256.740936,45.676102 282.206848,31.976633 312.399780,26.954859 
	C339.190002,22.499029 364.787323,26.102152 389.696014,36.335236 
	C409.979004,44.667988 427.028473,57.587112 441.286774,73.988525 
	C456.291138,91.248207 465.760101,111.463913 469.867828,133.988022 
	C471.158112,141.063034 471.308441,148.345917 471.979614,156.029022 
M299.453552,119.993408 
	C288.550781,129.620728 281.659058,158.119125 291.334503,172.808060 
	C297.278656,181.832291 305.529205,187.363785 316.588623,186.895401 
	C326.275543,186.485184 333.804138,180.992722 338.732849,173.211975 
	C344.018463,164.867844 342.784027,154.036957 335.709076,148.291763 
	C330.566498,144.115753 323.017578,143.030472 318.656738,148.808395 
	C314.704315,154.045135 314.174438,154.564056 321.613098,161.095398 
	C323.867676,163.074966 325.106659,165.408478 323.323181,167.991074 
	C320.985168,171.376633 317.484955,173.018845 313.365570,171.665573 
	C305.113464,168.954636 299.543793,156.288437 302.527374,147.981415 
	C308.224152,132.120346 330.865845,126.141663 343.034882,135.339478 
	C354.019928,143.642410 359.269806,158.569016 354.380035,173.000305 
	C351.788849,180.647705 348.318359,187.955688 341.523621,193.149338 
	C332.219666,200.261002 321.937378,202.253754 310.390045,201.103546 
	C286.861023,198.759857 274.032623,182.706909 272.084900,160.919083 
	C271.121948,150.147308 273.110199,139.707260 277.020264,129.623322 
	C286.020874,106.411217 303.341919,94.167946 326.827454,91.187843 
	C341.975342,89.265717 356.490723,92.577675 369.813263,100.382187 
	C381.587524,107.279716 390.681732,116.880928 396.821045,128.917313 
	C403.047607,141.124954 404.696747,154.436386 403.973511,168.057999 
	C403.279572,181.127823 399.961792,193.490967 392.828308,204.474289 
	C387.963257,211.964905 382.174438,218.855560 376.725647,226.111725 
	C377.962006,226.370041 379.513611,226.969864 381.067688,226.976303 
	C396.732574,227.041275 412.399597,227.134018 428.061951,226.920898 
	C432.255371,226.863815 436.212311,226.002655 438.148804,220.979614 
	C440.936371,213.749222 444.878632,206.960587 447.611481,199.713181 
	C455.218872,179.538498 455.992035,158.740219 452.040405,137.715988 
	C448.746857,120.193275 441.503815,104.428421 430.797119,90.111595 
	C421.726013,77.981865 410.874573,67.904007 398.039948,60.017857 
	C383.922272,51.343365 368.772797,45.570133 352.089539,43.825138 
	C337.711700,42.321278 323.407532,42.159172 309.334229,45.378979 
	C291.543823,49.449203 275.323669,57.300358 261.079437,68.699234 
	C257.973297,71.184906 252.893234,72.452293 252.908844,78.320282 
	C253.036972,126.482071 252.994873,174.644379 252.944397,222.806458 
	C252.941406,225.664459 253.678680,227.095840 256.868042,227.055939 
	C288.458221,226.660721 320.049835,226.374985 351.639832,225.966537 
	C352.789825,225.951675 354.184784,225.255188 355.029999,224.430145 
	C361.386078,218.226181 368.059509,212.276413 373.827759,205.555450 
	C387.203644,189.970490 392.432007,171.939728 389.079590,151.421143 
	C386.632629,136.444138 379.438599,124.691681 367.284424,115.701241 
	C357.120178,108.182762 345.440857,104.300499 333.231873,104.306381 
	C320.368652,104.312576 308.702087,109.274384 299.453552,119.993408 
z"/>
<path fill="#ffffff"  opacity="1.000000" stroke="none" 
	d="
M207.151321,264.984131 
	C205.988647,270.021149 208.265991,271.111877 213.010223,271.104614 
	C293.149292,270.981934 373.289673,271.214325 453.426575,270.780914 
	C463.572052,270.726044 471.869629,281.863647 464.794220,290.745239 
	C462.680695,293.398376 458.397675,295.585938 455.008759,295.736359 
	C442.038727,296.312195 429.027954,295.973267 416.032410,295.973145 
	C340.558228,295.972504 265.084015,295.972015 189.609818,295.968567 
	C182.222763,295.968201 182.012329,295.774048 182.011917,288.399261 
	C182.007401,207.760178 182.053970,127.121010 181.918442,46.482151 
	C181.909225,41.000965 183.077164,36.443916 188.106201,34.156307 
	C193.080963,31.893396 201.450424,32.247959 204.881165,37.988274 
	C205.611679,40.134079 206.213409,41.576149 206.815125,43.018215 
	C206.873688,43.737160 206.932266,44.456108 207.001556,45.819901 
	C207.013901,46.654102 207.015549,46.843464 207.013550,47.005859 
	C207.009903,46.978893 207.062363,46.993397 206.813171,47.327610 
	C206.376862,49.462185 206.026871,51.262478 206.026108,53.062916 
	C205.997238,121.419548 205.993408,189.776199 206.035339,258.132812 
	C206.036530,260.071075 206.571198,262.009003 206.931610,264.206055 
	C207.054504,264.638062 207.102905,264.811096 207.151321,264.984131 
z"/>
<path fill="#ffffff"  opacity="1.000000" stroke="none" 
	d="
M424.000000,342.972931 
	C329.185638,342.975281 234.871262,342.979401 140.556900,342.975922 
	C134.222321,342.975708 129.451675,338.749481 128.123993,332.035889 
	C127.126472,326.991760 130.593506,320.853485 135.785690,318.828918 
	C137.253204,318.256683 138.946106,318.036102 140.535736,318.035706 
	C245.681168,318.009125 350.826630,318.018402 455.972076,318.038300 
	C462.911499,318.039612 467.007629,322.629333 466.991516,330.244110 
	C466.974457,338.299500 462.979004,342.960358 455.992981,342.977112 
	C445.495392,343.002319 434.997681,342.976837 424.000000,342.972931 
z"/>
<path fill="#ffffff"  opacity="1.000000" stroke="none" 
	d="
M156.829773,39.727158 
	C156.951218,116.959106 156.967560,193.787155 156.986389,270.615204 
	C156.987900,276.786255 157.685715,283.051636 156.844711,289.104340 
	C155.805740,296.581818 150.681412,299.600800 142.465500,298.974457 
	C136.504318,298.520020 131.628708,293.342499 131.045883,286.814850 
	C130.972076,285.988190 131.031906,285.149445 131.031876,284.316315 
	C131.029297,205.334137 131.017181,126.351974 131.035156,47.369808 
	C131.037811,35.711960 139.574310,29.024231 149.521820,33.187466 
	C152.293488,34.347462 154.343964,37.230614 156.829773,39.727158 
z"/>
<path fill="#ffffff"  opacity="1.000000" stroke="none" 
	d="
M251.001450,390.981934 
	C244.085953,390.638763 237.544922,390.953918 231.289505,389.765594 
	C225.099960,388.589813 222.707245,382.209320 224.043930,373.595032 
	C224.761490,368.970825 229.796478,365.023346 235.134369,365.022949 
	C308.458221,365.017517 381.782043,365.018768 455.105896,365.046997 
	C462.738129,365.049927 467.011383,369.843140 466.995056,378.134094 
	C466.978851,386.361786 462.720062,390.972534 454.975037,390.974274 
	C387.150360,390.989410 319.325714,390.982208 251.001450,390.981934 
z"/>
<path fill="#ffffff"  opacity="1.000000" stroke="none" 
	d="
M81.225540,225.512268 
	C88.560425,214.875259 106.566048,217.836441 110.303619,228.525681 
	C113.652359,238.102890 108.533585,248.019485 101.277718,250.242233 
	C92.173096,253.031296 82.850784,250.338486 79.748863,241.061966 
	C78.072098,236.047485 78.185188,230.715530 81.225540,225.512268 
z"/>
<path fill="#ffffff"  opacity="1.000000" stroke="none" 
	d="
M84.823219,363.690430 
	C93.368355,357.861023 102.820549,359.025238 108.210266,366.813141 
	C113.618088,374.627167 113.269287,382.655121 104.586723,389.808075 
	C99.339714,394.130768 89.458115,394.823364 82.624458,387.264648 
	C78.060280,382.216217 76.747993,369.658478 84.823219,363.690430 
z"/>
<path fill="#ffffff"  opacity="1.000000" stroke="none" 
	d="
M83.793579,107.285355 
	C77.626633,102.443825 76.994194,89.937561 82.786530,83.798721 
	C87.980530,78.294006 98.094360,76.622780 105.593430,82.352509 
	C110.536934,86.129631 112.811714,93.436256 110.783852,100.307205 
	C108.878494,106.763100 103.096092,110.835823 96.469612,111.018669 
	C91.927063,111.144012 87.590408,110.890388 83.793579,107.285355 
z"/>
<path fill="#ffffff" opacity="1.000000" stroke="none" 
	d="
M159.972000,378.676270 
	C158.733429,387.786316 152.115067,392.496063 143.627991,392.934662 
	C135.719513,393.343353 128.503387,386.846893 127.029564,378.620789 
	C125.864250,372.116638 131.193436,363.857605 138.162308,361.367462 
	C149.668854,357.255859 159.995590,365.246887 159.972000,378.676270 
z"/>
<path fill="#ffffff"  opacity="1.000000" stroke="none" 
	d="
M201.143860,390.285278 
	C190.626541,397.110779 178.681885,390.075592 176.576019,382.184418 
	C174.160736,373.133850 177.979752,364.273651 186.297623,361.316711 
	C194.683319,358.335693 203.637390,362.326294 207.183884,370.625214 
	C209.990921,377.193756 207.504044,385.551971 201.143860,390.285278 
z"/>
<path fill="#ffffff"   opacity="1.000000" stroke="none" 
	d="
M81.149857,196.604614 
	C76.465172,188.570801 79.570236,176.836121 88.283798,173.185944 
	C97.199303,169.451187 107.869011,173.840088 110.614227,183.233109 
	C113.144836,191.891785 109.794952,200.156860 101.466057,202.976730 
	C93.718224,205.599854 86.303726,204.873383 81.149857,196.604614 
z"/>
<path fill="#ffffff"  opacity="1.000000" stroke="none" 
	d="
M110.961349,323.392273 
	C113.052177,329.690918 112.342369,335.215149 107.782867,339.559937 
	C103.099678,344.022583 97.564468,346.028442 90.854752,344.107849 
	C84.855797,342.390686 80.508896,338.905151 79.221611,332.951721 
	C78.025551,327.420288 78.543785,321.626862 83.217545,317.461670 
	C92.025284,309.612366 105.328674,312.347168 110.961349,323.392273 
z"/>
<path fill="#ffffff"  opacity="1.000000" stroke="none" 
	d="
M110.364807,54.126648 
	C106.002197,65.270309 91.938690,66.272041 84.995361,61.020569 
	C80.568802,57.672615 77.584312,49.772198 79.118057,43.858566 
	C80.518608,38.458485 86.955185,32.446606 92.076225,32.068180 
	C104.692360,31.135900 110.077423,37.451290 111.872261,48.706375 
	C112.128273,50.311783 111.080711,52.125069 110.364807,54.126648 
z"/>
<path fill="#ffffff"   opacity="1.000000" stroke="none" 
	d="
M109.331238,149.175110 
	C103.688049,157.889252 94.559853,160.706879 86.845901,155.840347 
	C79.218964,151.028717 76.657852,142.738083 80.581284,133.975418 
	C83.377502,127.730263 93.348999,122.556862 102.346413,127.123589 
	C110.252808,131.136566 113.351807,140.148560 109.331238,149.175110 
z"/>
<path fill="#ffffff" opacity="1.000000" stroke="none" 
	d="
M79.926109,276.318665 
	C84.348930,266.076447 92.136734,265.279755 98.688889,266.131775 
	C104.677238,266.910461 111.141319,274.960022 111.939636,281.862000 
	C112.623032,287.770294 105.233772,296.899963 98.729012,297.921143 
	C85.341393,300.022919 75.953156,289.221619 79.926109,276.318665 
z"/>
<path fill="#ffffff"  opacity="1.000000" stroke="none" 
	d="
M207.517578,264.760834 
	C207.102905,264.811096 207.054504,264.638062 206.980637,263.743896 
	C206.969177,261.193604 206.994888,259.364471 206.995514,257.535309 
	C207.019211,187.354675 207.040634,117.174034 207.062363,46.993397 
	C207.062363,46.993397 207.009903,46.978893 207.218536,46.993416 
	C207.427185,47.007942 207.838928,47.003639 207.838928,47.003639 
	C207.892624,48.829411 207.993027,50.655182 207.993240,52.480957 
	C208.001221,121.339073 208.000900,190.197189 207.995148,259.055298 
	C207.994995,260.882721 207.922562,262.710114 207.517578,264.760834 
z"/>
<path fill="#ffffff"  opacity="1.000000" stroke="none" 
	d="
M206.885040,42.658295 
	C206.213409,41.576149 205.611679,40.134079 205.020020,38.310230 
	C205.671707,39.385090 206.313339,40.841732 206.885040,42.658295 
z"/>
<path fill="#ffffff"  opacity="1.000000" stroke="none" 
	d="
M207.877960,46.737289 
	C207.838928,47.003639 207.427185,47.007942 207.222198,47.020386 
	C207.015549,46.843464 207.013901,46.654102 207.027710,46.181107 
	C207.334427,46.088627 207.625702,46.279785 207.877960,46.737289 
z"/>

<path fill="#ffffff"  opacity="1.000000" stroke="none" 
	d="
M206.813171,47.327610 
	C207.040634,117.174034 207.019211,187.354675 206.995514,257.535309 
	C206.994888,259.364471 206.969177,261.193604 206.906128,263.484924 
	C206.571198,262.009003 206.036530,260.071075 206.035339,258.132812 
	C205.993408,189.776199 205.997238,121.419548 206.026108,53.062916 
	C206.026871,51.262478 206.376862,49.462185 206.813171,47.327610 
z"/>

  </svg>
